<?xml version="1.0" encoding="utf-8"?>
<!-- Generator: Adobe Illustrator 24.1.2, SVG Export Plug-In . SVG Version: 6.00 Build 0)  -->
<svg version="1.1" id="Layer_1" xmlns="http://www.w3.org/2000/svg" xmlns:xlink="http://www.w3.org/1999/xlink" x="0px" y="0px"
	 viewBox="0 0 360 360" style="enable-background:new 0 0 360 360;" xml:space="preserve">
<style type="text/css">
	.st0{fill:#231F20;}
</style>
<g>
	<path class="st0" d="M207,234h-81V99c0-4.97-4.03-9-9-9H99c-4.97,0-9,4.03-9,9v162c0,4.97,4.03,9,9,9h108c4.97,0,9-4.03,9-9v-18
		C216,238.03,211.97,234,207,234z"/>
	<path class="st0" d="M261,90h-81h-27c-4.97,0-9,4.03-9,9v9v9v54v18v18c0,4.97,4.03,9,9,9h18c4.97,0,9-4.03,9-9v-9
		c29.82,0,54,24.18,54,54v9c0,4.97,4.03,9,9,9h18c4.97,0,9-4.03,9-9v-9c0-29.82-24.18-54-54-54h45c4.97,0,9-4.03,9-9v-9v-9v-54v-9
		v-9C270,94.03,265.97,90,261,90z M180,162v-36h54v36H180z"/>
</g>
</svg>
